<?xml version="1.0" standalone="no"?>
<!DOCTYPE svg PUBLIC "-//W3C//DTD SVG 20010904//EN"
 "http://www.w3.org/TR/2001/REC-SVG-20010904/DTD/svg10.dtd">
<svg version="1.0" xmlns="http://www.w3.org/2000/svg"
 width="1280.000000pt" height="1284.000000pt" viewBox="0 0 1280.000000 1284.000000"
 preserveAspectRatio="xMidYMid meet">
<metadata>
Created by potrace 1.16, written by Peter Selinger 2001-2019
</metadata>
<g transform="translate(0.000000,1284.000000) scale(0.100000,-0.100000)"
fill="rgb(76, 76, 76)" stroke="none">
<path d="M5820 12830 c-219 -17 -566 -74 -860 -142 -1351 -311 -2518 -1016
-3429 -2072 -745 -864 -1237 -1901 -1445 -3051 -79 -433 -81 -463 -81 -1125 0
-565 1 -603 23 -760 68 -488 163 -905 296 -1297 650 -1913 2156 -3406 4068
-4032 467 -153 842 -233 1365 -291 146 -16 245 -20 548 -20 628 1 889 21 1315
106 1150 227 2166 727 3030 1491 150 133 481 467 606 613 849 989 1341 2110
1520 3460 22 162 32 1034 15 1275 -41 587 -221 1322 -477 1943 -331 803 -886
1597 -1539 2202 -1015 941 -2179 1483 -3610 1682 -134 18 -208 21 -695 23
-300 2 -592 -1 -650 -5z m580 -6391 l0 -5201 -157 6 c-799 34 -1480 209 -2183
561 -1434 717 -2467 2087 -2765 3665 -69 365 -85 549 -85 975 0 343 10 502 46
735 122 790 386 1483 812 2130 95 144 285 397 387 515 122 140 477 491 610
601 834 690 1864 1113 2910 1194 206 15 221 16 328 18 l97 2 0 -5201z"/>
</g>
</svg>
