<?xml version="1.0" standalone="no"?>
<!DOCTYPE svg PUBLIC "-//W3C//DTD SVG 20010904//EN"
 "http://www.w3.org/TR/2001/REC-SVG-20010904/DTD/svg10.dtd">
<svg version="1.0" xmlns="http://www.w3.org/2000/svg"
 width="1165.000000pt" height="1165.000000pt" viewBox="0 0 1165.000000 1165.000000"
 preserveAspectRatio="xMidYMid meet">
<metadata>
Created by potrace 1.16, written by Peter Selinger 2001-2019
</metadata>
<g transform="translate(0.000000,1165.000000) scale(0.100000,-0.100000)"
fill="rgb(76, 76, 76)" stroke="none">
<path d="M5240 10730 l0 -900 580 0 580 0 0 900 0 900 -580 0 -580 0 0 -900z"/>
<path d="M1702 9927 c-221 -221 -402 -407 -402 -412 0 -6 286 -296 635 -645
l635 -635 412 413 413 412 -635 635 c-349 349 -639 635 -645 635 -6 0 -191
-181 -413 -403z"/>
<path d="M8880 9695 l-635 -635 413 -412 412 -413 635 635 c349 349 635 639
635 645 0 13 -802 815 -815 815 -6 0 -296 -286 -645 -635z"/>
<path d="M5530 9099 c-637 -56 -1267 -309 -1775 -713 -129 -103 -408 -382
-511 -511 -281 -353 -504 -795 -614 -1216 -268 -1030 -44 -2083 619 -2919 96
-122 378 -404 501 -502 599 -476 1314 -727 2067 -728 755 0 1473 252 2073 728
123 98 405 380 501 502 692 872 904 1982 582 3050 -106 355 -330 774 -577
1085 -103 129 -382 408 -511 511 -353 281 -795 504 -1216 614 -368 96 -774
131 -1139 99z m486 -1160 c882 -85 1616 -697 1863 -1554 115 -400 103 -842
-34 -1253 -340 -1017 -1397 -1630 -2444 -1418 -749 153 -1365 697 -1606 1418
-181 541 -144 1098 105 1613 385 794 1244 1279 2116 1194z"/>
<path d="M0 5810 l0 -580 900 0 900 0 0 580 0 580 -900 0 -900 0 0 -580z"/>
<path d="M9840 5810 l0 -580 900 0 900 0 0 580 0 580 -900 0 -900 0 0 -580z"/>
<path d="M1932 2747 c-347 -347 -632 -637 -632 -642 0 -13 802 -815 815 -815
6 0 296 286 645 635 l635 635 -410 410 c-225 225 -412 410 -415 410 -3 0 -290
-285 -638 -633z"/>
<path d="M8655 2970 l-410 -410 635 -635 c349 -349 639 -635 645 -635 13 0
815 802 815 815 0 10 -1260 1275 -1270 1275 -3 0 -190 -185 -415 -410z"/>
<path d="M5240 895 l0 -895 580 0 580 0 0 895 0 895 -580 0 -580 0 0 -895z"/>
</g>
</svg>
