<?xml version="1.0" standalone="no"?>
<!DOCTYPE svg PUBLIC "-//W3C//DTD SVG 20010904//EN"
 "http://www.w3.org/TR/2001/REC-SVG-20010904/DTD/svg10.dtd">
<svg version="1.0" xmlns="http://www.w3.org/2000/svg"
 width="742.000000pt" height="770.000000pt" viewBox="0 0 742.000000 770.000000"
 preserveAspectRatio="xMidYMid meet">
<metadata>
Created by potrace 1.16, written by Peter Selinger 2001-2019
</metadata>
<g transform="translate(0.000000,770.000000) scale(0.100000,-0.100000)"
fill="rgb(76, 76, 76)" stroke="none">
<path d="M3480 7638 c-612 -56 -1227 -275 -1745 -621 -359 -239 -684 -548
-943 -895 -409 -548 -656 -1183 -734 -1887 -17 -157 -17 -613 0 -770 101 -913
488 -1712 1133 -2340 637 -620 1447 -991 2326 -1065 183 -16 645 -8 803 14
732 102 1357 369 1918 819 343 276 662 645 880 1019 159 272 216 392 268 564
24 78 28 107 28 229 1 137 0 141 -31 207 -40 85 -101 146 -188 189 -60 29 -80
34 -165 37 -202 8 -383 -76 -611 -284 -198 -181 -385 -288 -612 -348 -132 -35
-223 -47 -371 -47 -280 1 -529 77 -766 236 -730 488 -831 1516 -210 2135 214
214 464 344 760 396 100 17 329 19 426 4 290 -46 537 -167 764 -376 120 -110
182 -156 284 -209 113 -60 203 -86 302 -86 101 -1 171 18 250 69 180 117 221
347 116 667 -31 97 -150 333 -256 510 -622 1035 -1672 1702 -2881 1830 -155
16 -585 18 -745 3z m530 -818 c67 -18 169 -74 227 -125 70 -61 144 -174 174
-266 19 -59 24 -95 24 -179 0 -131 -27 -221 -97 -327 -63 -94 -134 -155 -233
-202 -102 -49 -157 -62 -264 -62 -201 1 -375 95 -489 264 -70 106 -97 196 -97
327 0 131 27 221 97 327 125 186 333 285 553 262 33 -4 80 -12 105 -19z
m-1679 -709 c37 -12 100 -43 141 -69 252 -165 339 -485 206 -758 -41 -85 -146
-197 -229 -247 -197 -117 -437 -110 -631 19 -196 131 -299 375 -253 599 26
125 74 214 164 306 82 83 176 138 285 165 74 19 235 11 317 -15z m-721 -1691
c67 -18 169 -74 227 -125 70 -61 144 -174 174 -266 19 -59 24 -95 24 -179 0
-131 -27 -221 -97 -327 -63 -94 -134 -155 -233 -202 -101 -49 -157 -62 -260
-62 -103 0 -159 13 -260 62 -99 47 -170 108 -233 202 -70 106 -97 196 -97 327
0 131 27 221 97 327 125 186 333 285 553 262 33 -4 80 -12 105 -19z m711
-1700 c193 -60 358 -236 404 -433 73 -309 -121 -628 -430 -707 -143 -37 -263
-25 -404 41 -69 32 -99 54 -162 118 -90 92 -138 181 -164 306 -63 305 148 619
465 690 82 18 205 12 291 -15z m1689 -700 c67 -18 169 -74 227 -125 70 -61
144 -174 174 -266 19 -59 24 -95 24 -179 0 -131 -27 -221 -97 -327 -63 -94
-134 -155 -233 -202 -102 -49 -157 -62 -264 -62 -201 1 -375 95 -489 264 -70
106 -97 196 -97 327 0 131 27 221 97 327 125 186 333 285 553 262 33 -4 80
-12 105 -19z"/>
</g>
</svg>
